<?xml version="1.0" encoding="UTF-8" standalone="no"?>
<!-- Generator: Adobe Illustrator 16.0.4, SVG Export Plug-In . SVG Version: 6.00 Build 0)  -->

<svg
   xmlns:dc="http://purl.org/dc/elements/1.1/"
   xmlns:cc="http://creativecommons.org/ns#"
   xmlns:rdf="http://www.w3.org/1999/02/22-rdf-syntax-ns#"
   xmlns:svg="http://www.w3.org/2000/svg"
   xmlns="http://www.w3.org/2000/svg"
   xmlns:sodipodi="http://sodipodi.sourceforge.net/DTD/sodipodi-0.dtd"
   xmlns:inkscape="http://www.inkscape.org/namespaces/inkscape"
   version="1.1"
   id="Layer_1"
   x="0px"
   y="0px"
   width="112px"
   height="112px"
   viewBox="0 0 112 112"
   enable-background="new 0 0 112 112"
   xml:space="preserve"
   inkscape:version="0.48.4 r9939"
   sodipodi:docname="sedan2.svg"><metadata
     id="metadata9"><rdf:RDF><cc:Work
         rdf:about=""><dc:format>image/svg+xml</dc:format><dc:type
           rdf:resource="http://purl.org/dc/dcmitype/StillImage" /><dc:title></dc:title></cc:Work></rdf:RDF></metadata><defs
     id="defs7" /><sodipodi:namedview
     pagecolor="#ffffff"
     bordercolor="#666666"
     borderopacity="1"
     objecttolerance="10"
     gridtolerance="10"
     guidetolerance="10"
     inkscape:pageopacity="0"
     inkscape:pageshadow="2"
     inkscape:window-width="1391"
     inkscape:window-height="876"
     id="namedview5"
     showgrid="false"
     inkscape:zoom="2.97995"
     inkscape:cx="-2.5500916"
     inkscape:cy="64.954981"
     inkscape:window-x="1415"
     inkscape:window-y="24"
     inkscape:window-maximized="1"
     inkscape:current-layer="Layer_1" /><path
     d="m 26.620098,49.917684 c 1.200927,-0.805131 14.957404,-12.828639 19.052219,-16.57965 2.899911,-2.655137 4.973746,-3.085628 5.974327,-3.085628 0.945461,0 24.412928,0.148879 27.238098,0.148879 2.821433,0 6.107304,1.479965 8.25612,2.707186 2.68398,1.270549 4.401931,2.59733 8.835372,6.085754 7.972046,6.876788 14.097196,11.964763 14.097196,15.456053 0,1.97874 -0.0424,10.183186 -0.0424,10.183186 0,1.888119 0.69268,10.059475 -1.11054,10.158158 l -8.88966,0.486501 c -1.797493,5.07858 -6.625694,8.720284 -12.320879,8.720284 -5.693316,0 -10.523385,-3.641704 -12.320881,-8.720284 l -40.758499,0 c -1.795628,5.07858 -6.625697,8.720284 -12.319013,8.720284 -5.961446,0 -10.979299,-3.990179 -12.5572463,-9.440591 -2.1095352,-1.443415 -6.0678938,-5.631611 -6.0678938,-7.076895 0,0 -0.9491525,-8.413004 1.1864407,-11.339963 9.342e-4,-3.342745 16.8308944,-6.423274 21.7472594,-6.423274 z m 70.249705,-4.026069 c -1.687254,-2.341229 -11.573291,-9.017708 -13.010071,-9.907192 -1.771544,-1.109999 -4.468358,-1.532929 -6.617131,-1.532929 -0.898748,0 -5.621458,-1.284725 -5.613607,0.08009 l 0.08313,14.450115 c 0.0091,1.583393 23.031326,0.723527 24.16457,0.723527 1.820885,-0.774967 2.481764,-1.579419 0.993109,-3.813606 z m -9.158937,31.766112 c 3.604334,0 6.539746,-2.935412 6.539746,-6.539746 0,-3.604335 -2.935412,-6.539746 -6.539746,-6.539746 -3.604335,0 -6.539746,2.935411 -6.539746,6.539746 0,3.604334 2.934477,6.539746 6.539746,6.539746 z m -17.868173,-28.675098 0,-14.589604 c 0,-1.498219 -16.712008,-0.274061 -16.712008,-0.274061 -1.678847,0 -4.449957,1.094877 -5.644862,2.158987 -1.669504,1.487325 -8.351256,7.786035 -10.968089,10.311311 -0.687924,1.259558 -0.879825,2.06295 0.46152,2.728008 0,9.35e-4 32.863439,1.568441 32.863439,-0.334641 z M 22.312472,77.657727 c 3.605268,0 6.539746,-2.935412 6.539746,-6.539746 0,-3.604335 -2.934478,-6.539746 -6.539746,-6.539746 -3.605269,0 -6.539746,2.935411 -6.539746,6.539746 0,3.604334 2.934477,6.539746 6.539746,6.539746 z"
     id="path3"
     inkscape:connector-curvature="0"
     sodipodi:nodetypes="ccssccscscsccscccscssssccsssssssccccsssssss" /><path
     style="opacity:0.79012343;fill:#b3b3b3;fill-opacity:1;stroke:none"
     d="m 43.855733,49.505585 c -7.388415,-0.252506 -7.593221,-0.297239 -7.593221,-1.658491 0,-0.840236 0.199528,-1.053193 6.587282,-7.030631 2.774699,-2.596468 5.57442,-5.009047 6.221601,-5.361287 2.044568,-1.112794 3.757178,-1.331422 11.631795,-1.484893 4.240142,-0.08264 7.581223,-0.04907 8.067797,0.08106 l 0.830508,0.222111 0,7.449765 0,7.449764 -0.830508,0.207081 c -1.240284,0.309256 -17.188175,0.389599 -24.915254,0.12552 z"
     id="path2986"
     inkscape:connector-curvature="0" /><path
     style="opacity:0.79012343;fill:#b3b3b3;fill-opacity:1;stroke:none"
     d="m 74.422976,49.552284 c -2.871085,-0.360062 -2.567243,0.58706 -2.567243,-8.002502 l 0,-7.492034 1.957627,0.143417 c 8.139335,0.596292 8.482612,0.718596 14.978754,5.336684 8.173606,5.810592 10.133342,8.248203 7.747498,9.636701 -0.787692,0.458416 -1.26555,0.482055 -10.677966,0.528219 -5.419354,0.02658 -10.566756,-0.04114 -11.43867,-0.150485 l 0,0 z"
     id="path2988"
     inkscape:connector-curvature="0" /><path
     style="opacity:0.79012343;fill:#1a1a1a;fill-opacity:1;stroke:none"
     d="m 20.342643,77.179742 c -1.407462,-0.433566 -3.032605,-1.874389 -3.765669,-3.338578 -0.69163,-1.381429 -0.779489,-3.738251 -0.190329,-5.10557 0.508791,-1.180797 1.965941,-2.743486 3.130867,-3.35763 1.321176,-0.696518 4.118089,-0.726094 5.465945,-0.0578 2.136442,1.059291 3.476369,3.085934 3.639775,5.505166 0.180989,2.679571 -1.537259,5.266817 -4.146039,6.242887 -1.481528,0.55431 -2.599283,0.58446 -4.13455,0.111525 z"
     id="path2990"
     inkscape:connector-curvature="0" /><path
     style="opacity:0.79012343;fill:#1a1a1a;fill-opacity:1;stroke:none"
     d="m 85.471855,77.056553 c -2.407718,-0.926084 -4.134372,-3.414517 -4.104226,-5.914961 0.0312,-2.587794 1.275532,-4.539934 3.633905,-5.700957 1.400362,-0.689396 1.723173,-0.758185 3.055941,-0.651204 1.838263,0.147558 3.098447,0.769167 4.381736,2.161371 2.401496,2.605315 2.143496,6.531359 -0.587161,8.93498 -1.831304,1.611978 -4.134358,2.03459 -6.380195,1.170771 l 0,0 z"
     id="path2992"
     inkscape:connector-curvature="0" /></svg>